M48
; DRILL file {KiCad 9.0.6} date 2026-03-25T10:56:23+0530
; FORMAT={-:-/ absolute / metric / decimal}
; #@! TF.CreationDate,2026-03-25T10:56:23+05:30
; #@! TF.GenerationSoftware,Kicad,Pcbnew,9.0.6
; #@! TF.FileFunction,Plated,1,2,PTH
FMAT,2
METRIC
; #@! TA.AperFunction,Plated,PTH,ComponentDrill
T1C0.800
; #@! TA.AperFunction,Plated,PTH,ComponentDrill
T2C0.850
; #@! TA.AperFunction,Plated,PTH,ComponentDrill
T3C0.900
; #@! TA.AperFunction,Plated,PTH,ComponentDrill
T4C1.000
%
G90
G05
T1
X151.5Y-83.19
X151.5Y-90.81
X164.695Y-77.61
X164.695Y-80.15
X164.695Y-82.69
X164.695Y-85.23
X164.695Y-87.77
X164.695Y-90.31
X164.695Y-92.85
X164.695Y-95.39
X172.315Y-77.61
X172.315Y-80.15
X172.315Y-82.69
X172.315Y-85.23
X172.315Y-87.77
X172.315Y-90.31
X172.315Y-92.85
X172.315Y-95.39
X175.0Y-78.19
X175.0Y-80.73
X175.0Y-83.27
X175.0Y-85.81
X175.69Y-102.5
X180.455Y-92.0
X182.455Y-92.0
X182.62Y-78.19
X182.62Y-80.73
X182.62Y-83.27
X182.62Y-85.81
X183.31Y-102.5
T2
X152.42Y-102.0
X154.96Y-102.0
X157.5Y-102.0
T3
X151.0Y-78.5
X153.54Y-78.5
X154.23Y-72.0
X156.77Y-72.0
X157.73Y-66.0
X160.27Y-66.0
X161.23Y-59.0
X163.77Y-59.0
X165.46Y-53.0
X168.0Y-53.0
X171.46Y-53.0
X174.0Y-53.0
X174.73Y-59.0
X177.27Y-59.0
X177.73Y-66.0
X180.27Y-66.0
X182.23Y-72.0
X184.77Y-72.0
X185.73Y-78.5
X188.27Y-78.5
T4
X165.46Y-103.5
X168.0Y-103.5
X183.5Y-96.5
X188.5Y-96.5
M30
